<?xml version="1.0" encoding="UTF-8"?>
<svg width="24" height="24" viewBox="0 0 24 24" fill="none" xmlns="http://www.w3.org/2000/svg">
  <path d="M20.4054 3.5875C18.1607 1.3425 15.1714 0.0975 11.9946 0.0975C5.4375 0.0975 0.101786 5.43321 0.101786 11.9904C0.101786 14.1 0.648214 16.1625 1.67143 18.0054L0 24L6.13393 22.3607C7.90714 23.2982 9.92679 23.7975 11.9893 23.7975H11.9946C18.5464 23.7975 24 18.4618 24 11.9046C24 8.72786 22.65 5.8325 20.4054 3.5875ZM11.9946 21.7875C10.2214 21.7875 8.48571 21.3096 6.96964 20.4107L6.60536 20.1911L2.85536 21.1607L3.84107 17.4964L3.59464 17.1161C2.61429 15.5411 2.10536 13.7946 2.10536 11.9904C2.10536 6.54321 6.54643 2.10214 12 2.10214C14.6411 2.10214 17.1214 3.15 19.0071 5.04107C20.8929 6.92679 21.9964 9.40714 21.9911 11.9046C21.9911 17.3571 17.4429 21.7875 11.9946 21.7875ZM17.4161 14.4964C17.1214 14.3464 15.6589 13.6286 15.3857 13.5321C15.1125 13.4304 14.9143 13.3821 14.7161 13.6821C14.5179 13.9821 13.95 14.6464 13.7732 14.85C13.6018 15.0482 13.425 15.0750 13.1304 14.9250C11.3786 14.0464 10.2375 13.3607 9.09107 11.3786C8.80714 10.8911 9.42321 10.9286 9.99643 9.78214C10.0929 9.58393 10.0446 9.41786 9.97071 9.26786C9.89679 9.11786 9.29679 7.65536 9.05036 7.06071C8.80929 6.48214 8.56286 6.56143 8.38393 6.55071C8.21786 6.54 8.01964 6.54 7.82143 6.54C7.62321 6.54 7.30179 6.61393 7.02857 6.90857C6.75536 7.20857 5.98929 7.92643 5.98929 9.38893C5.98929 10.8514 7.04464 12.2625 7.19464 12.4607C7.35 12.6589 9.28607 15.6643 12.2679 16.9607C14.1429 17.7857 14.8821 17.8607 15.8196 17.7107C16.3821 17.6196 17.5607 16.9821 17.8071 16.2857C18.0536 15.5893 18.0536 14.9946 17.9786 14.8607C17.9089 14.7161 17.7107 14.6411 17.4161 14.4964Z" fill="#25D366"/>
</svg> 