<svg
  width="160"
  height="320"
  viewBox="0 0 160 320"
  fill="none"
  xmlns="http://www.w3.org/2000/svg"
>
  <g stroke="#00f0ff" stroke-width="4" stroke-linejoin="round" stroke-linecap="round" filter="url(#glow)">
    <ellipse cx="80" cy="40" rx="32" ry="36" fill="none"/>
    <rect x="60" y="30" width="16" height="10" rx="3" fill="#00f0ff" opacity="0.5"/>
    <rect x="84" y="30" width="16" height="10" rx="3" fill="#00f0ff" opacity="0.5"/>
    <rect x="56" y="80" width="48" height="60" rx="20" fill="none"/>
    <ellipse cx="80" cy="150" rx="24" ry="12" fill="none"/>
    <ellipse cx="32" cy="110" rx="12" ry="28" fill="none"/>
    <ellipse cx="128" cy="110" rx="12" ry="28" fill="none"/>
    <ellipse cx="28" cy="170" rx="10" ry="22" fill="none"/>
    <ellipse cx="132" cy="170" rx="10" ry="22" fill="none"/>
    <circle cx="28" cy="200" r="8" fill="none"/>
    <circle cx="132" cy="200" r="8" fill="none"/>
    <ellipse cx="60" cy="230" rx="12" ry="36" fill="none"/>
    <ellipse cx="100" cy="230" rx="12" ry="36" fill="none"/>
    <ellipse cx="60" cy="280" rx="16" ry="10" fill="none"/>
    <ellipse cx="100" cy="280" rx="16" ry="10" fill="none"/>
  </g>
  <defs>
    <filter id="glow" x="-20" y="-20" width="200" height="360" filterUnits="userSpaceOnUse">
      <feGaussianBlur stdDeviation="4" result="coloredBlur"/>
      <feMerge>
        <feMergeNode in="coloredBlur"/>
        <feMergeNode in="SourceGraphic"/>
      </feMerge>
    </filter>
  </defs>
</svg> 